<?xml version="1.0" encoding="utf-8"?>
<!-- Generator: Adobe Illustrator 26.0.2, SVG Export Plug-In . SVG Version: 6.00 Build 0)  -->
<svg version="1.1" id="Laag_1" xmlns="http://www.w3.org/2000/svg" xmlns:xlink="http://www.w3.org/1999/xlink" x="0px" y="0px"
	 viewBox="0 0 485.6 470.3" style="enable-background:new 0 0 485.6 470.3;" xml:space="preserve">
<style type="text/css">
	.st0{fill:#7EB377;}
	.st1{fill:#EAC56A;}
	.st2{fill:#DDB55C;}
	.st3{fill:#1B3B45;}
	.st4{fill:#A4CDDA;}
	.st5{fill:#EFCA7A;}
	.st6{fill:#DFEBEC;}
	.st7{fill:#102C34;}
	.st8{fill:#8ACAD2;}
	.st9{fill:#264754;}
	.st10{fill:#D0DEE2;}
	.st11{fill:#BFD5DB;}
	.st12{fill:url(#SVGID_1_);}
	.st13{fill:url(#SVGID_00000004530550919988556600000011347889109411392425_);}
	.st14{fill:url(#SVGID_00000117654674513443863460000017792544969412310914_);}
	.st15{fill:url(#SVGID_00000026870148871210939520000005302774232798141073_);}
	.st16{fill:url(#SVGID_00000158021006284440686110000001223277449186209949_);}
	.st17{fill:url(#SVGID_00000155111429980826366540000007229689291801800624_);}
	.st18{fill:#2F505B;}
</style>
<g>
	<g id="Laag_2_00000072274805197411859940000007149347640464363963_">
		<g id="Laag_1-2_00000101103623148963485330000010889939143623013285_">
			<polygon class="st0" points="0,348.2 244.9,470.3 485.6,348.2 242.8,225.4 			"/>
		</g>
	</g>
	<path class="st1" d="M303,407.5c-58.2-29.5-116.4-59-174.5-88.5c0.3-75.7,0.6-151.4,0.9-227c58,29.5,116,59,174.1,88.5
		C303.3,256.2,303.2,331.8,303,407.5z"/>
	<path class="st2" d="M305.7,181.7c-0.2,75.9-0.4,151.9-0.6,227.8c40.5-20.6,81.1-41.2,121.6-61.7c0.2-75.9,0.4-151.9,0.6-227.8
		C386.8,140.5,346.2,161.1,305.7,181.7z"/>
	<g>
		<path class="st3" d="M360.6,375.7c-8.8,4.5-17.6,8.9-26.4,13.4c0-15.3,0-30.6-0.1-45.9c8.8-4.5,17.6-8.9,26.4-13.4
			C360.6,345.1,360.6,360.4,360.6,375.7z"/>
		<path class="st4" d="M356.8,373.8c-6.3,3.2-12.6,6.4-18.8,9.6c0-12.8,0-25.5,0-38.3c6.3-3.2,12.6-6.4,18.8-9.6
			C356.8,348.3,356.8,361,356.8,373.8z"/>
	</g>
	<g>
		<path class="st3" d="M408.8,351.3c-8.8,4.5-17.6,8.9-26.4,13.4c0-15.3,0-30.6-0.1-45.9c8.8-4.5,17.6-8.9,26.4-13.4
			C408.8,320.7,408.8,336,408.8,351.3z"/>
		<path class="st4" d="M405,349.4c-6.3,3.2-12.6,6.4-18.8,9.6c0-12.8,0-25.5,0-38.3c6.3-3.2,12.6-6.4,18.8-9.6
			C405,323.9,405,336.7,405,349.4z"/>
	</g>
	<path class="st5" d="M305,409.5c-0.8-0.4-1.7-0.9-2.5-1.3c0.3-75.9,0.6-151.8,1-227.7c0.7,0.4,1.5,0.8,2.2,1.2
		C305.4,257.6,305.2,333.6,305,409.5z"/>
	<g>
		<path class="st6" d="M183.5,347c-9.4-4.7-18.7-9.5-28.1-14.2c-30.8,15.5-61.6,31.1-92.4,46.6c9.4,4.7,18.9,9.4,28.3,14.1
			C122.1,378,152.8,362.5,183.5,347z"/>
	</g>
	<path class="st7" d="M183.5,347c-9.4-4.7-18.7-9.5-28.1-14.2c0-18.2,0-36.4,0-54.6c9.1,4.6,18.2,9.3,27.4,13.9
		C183.1,310.4,183.3,328.7,183.5,347z"/>
	<path class="st8" d="M171.9,299.2c0,4.3,0,8.6,0,13c-2.3-1.2-4.6-2.3-6.9-3.5c0-4.3,0-8.6,0-12.9c0-3.2,0-6.3,0-9.5
		c2.3,1.2,4.5,2.3,6.8,3.5C171.9,292.9,171.9,296.1,171.9,299.2z"/>
	<path class="st8" d="M171.9,327.8c0,3,0,5.9,0,8.9c-2.3-1.2-4.6-2.3-6.9-3.5c0-3,0-5.9,0-8.9c0-3.2,0-6.3,0-9.5
		c2.3,1.2,4.5,2.3,6.8,3.5C171.9,321.4,171.9,324.6,171.9,327.8z"/>
	<path class="st9" d="M151.2,280.3c1.4-0.7,2.8-1.4,4.3-2.1c9.1,4.6,18.2,9.3,27.3,13.9c-1.3,0.7-2.7,1.4-4,2
		C169.6,289.5,160.4,284.9,151.2,280.3z"/>
	<path class="st10" d="M178.8,296.4c-9.2-4.6-18.4-9.2-27.6-13.8c0-0.8,0-1.5,0-2.3c9.2,4.6,18.4,9.2,27.6,13.9
		C178.8,294.9,178.8,295.6,178.8,296.4z"/>
	<path class="st11" d="M182.9,294.3c-1.4,0.7-2.7,1.4-4.1,2c0-0.7,0-1.5,0-2.2c1.3-0.7,2.7-1.4,4-2
		C182.8,292.8,182.9,293.6,182.9,294.3z"/>
	
		<radialGradient id="SVGID_1_" cx="106.1399" cy="341.1924" r="14.8381" fx="104.2257" fy="326.4783" gradientUnits="userSpaceOnUse">
		<stop  offset="0.4363" style="stop-color:#38AB44"/>
		<stop  offset="1" style="stop-color:#2D8836"/>
	</radialGradient>
	<ellipse class="st12" cx="106.3" cy="342.2" rx="10.8" ry="10.1"/>
	
		<radialGradient id="SVGID_00000039097262350381304570000004510599010197413268_" cx="75.799" cy="356.463" r="14.8381" fx="73.8848" fy="341.7489" gradientUnits="userSpaceOnUse">
		<stop  offset="0.4363" style="stop-color:#38AB44"/>
		<stop  offset="1" style="stop-color:#2D8836"/>
	</radialGradient>
	<ellipse style="fill:url(#SVGID_00000039097262350381304570000004510599010197413268_);" cx="76" cy="357.5" rx="10.8" ry="10.1"/>
	
		<radialGradient id="SVGID_00000148658827011540790920000011067239666625353654_" cx="152.3436" cy="369.4355" r="14.8381" fx="150.4294" fy="354.7213" gradientUnits="userSpaceOnUse">
		<stop  offset="0.4363" style="stop-color:#38AB44"/>
		<stop  offset="1" style="stop-color:#2D8836"/>
	</radialGradient>
	
		<ellipse style="fill:url(#SVGID_00000148658827011540790920000011067239666625353654_);" cx="152.6" cy="370.4" rx="10.8" ry="10.1"/>
	
		<radialGradient id="SVGID_00000166652022946551547530000003845844508224998310_" cx="121.9869" cy="384.7061" r="14.8381" fx="120.0727" fy="369.9919" gradientUnits="userSpaceOnUse">
		<stop  offset="0.4363" style="stop-color:#38AB44"/>
		<stop  offset="1" style="stop-color:#2D8836"/>
	</radialGradient>
	
		<ellipse style="fill:url(#SVGID_00000166652022946551547530000003845844508224998310_);" cx="122.2" cy="385.7" rx="10.8" ry="10.1"/>
	
		<radialGradient id="SVGID_00000082351186375473981180000001332741560585178772_" cx="136.4809" cy="325.6788" r="14.8381" fx="134.5666" fy="310.9647" gradientUnits="userSpaceOnUse">
		<stop  offset="0.4363" style="stop-color:#38AB44"/>
		<stop  offset="1" style="stop-color:#2D8836"/>
	</radialGradient>
	
		<ellipse style="fill:url(#SVGID_00000082351186375473981180000001332741560585178772_);" cx="136.7" cy="326.7" rx="10.8" ry="10.1"/>
	
		<radialGradient id="SVGID_00000080171751308231028430000015073033133152827269_" cx="182.6688" cy="353.9218" r="14.8381" fx="180.7546" fy="339.2077" gradientUnits="userSpaceOnUse">
		<stop  offset="0.4363" style="stop-color:#38AB44"/>
		<stop  offset="1" style="stop-color:#2D8836"/>
	</radialGradient>
	
		<ellipse style="fill:url(#SVGID_00000080171751308231028430000015073033133152827269_);" cx="182.9" cy="354.9" rx="10.8" ry="10.1"/>
	<g>
		<path class="st3" d="M213,356.5c20.4,10.1,40.9,20.3,61.3,30.4c0-15.3,0-30.6,0.1-45.9c-20.4-10.4-40.8-20.8-61.2-31.2
			C213.2,325.4,213.1,340.9,213,356.5z"/>
		<path class="st4" d="M216.5,354c18,9.1,36.1,18.1,54.1,27.2v-38.3c-17.9-9.1-35.9-18.2-53.8-27.3
			C216.6,328.4,216.6,341.2,216.5,354z"/>
	</g>
	<g>
		<path class="st11" d="M303.4,173.4c41.1-20.9,82.1-41.8,123.2-62.7C367.5,80.5,308.4,50.2,249.3,20
			c-41.1,21.1-82.2,42.2-123.3,63.3C185.1,113.3,244.3,143.4,303.4,173.4z"/>
		<path class="st10" d="M303.4,180.5c0-2.4,0-4.7,0-7.1c-59.2-30-118.3-60.1-177.5-90.1c0,2.4,0,4.7,0,7.1
			C185.1,120.4,244.3,150.4,303.4,180.5"/>
		<path class="st18" d="M193.1,0C249,28.4,305,56.8,360.9,85.2c-18.7,28.5-37.4,57-56.1,85.5c-58.4-29.8-116.9-59.5-175.3-89.3
			C150.7,54.3,171.9,27.1,193.1,0z"/>
		<path class="st3" d="M424,107.9c-19.1-6.6-38.1-13.2-57.2-19.8C308.9,58.8,251,29.4,193.1,0c18.3,6.2,36.6,12.4,54.8,18.6
			C306.6,48.3,365.3,78.1,424,107.9z"/>
		<path class="st2" d="M305.8,163.4c0,6.1-0.1,12.2-0.1,18.3c40.5-20.6,81.1-41.2,121.6-61.7c0-6,0-12,0-18
			c-2.8,1.4-5.5,2.8-8.3,4.2c-15.6-7.9-31.2-15.7-46.8-23.6c0.1-5,0.1-9.9,0.2-14.9c-6.2,3.3-12.5,6.7-18.7,10
			c-0.1,4.7-0.2,9.4-0.3,14.1c-13.3,22.5-26.7,45.1-40,67.6C310.9,160.8,308.3,162.1,305.8,163.4z"/>
		<path class="st11" d="M305.8,163.4c2.5-1.3,5.1-2.6,7.6-3.9c13.3-22.5,26.7-45.1,40-67.6c0.1-4.7,0.2-9.4,0.3-14.1
			c6.2-3.3,12.5-6.7,18.7-10c-0.1,5-0.1,9.9-0.2,14.9c15.6,7.9,31.2,15.7,46.8,23.6c2.8-1.4,5.5-2.8,8.3-4.2c-0.9-0.5-1.9-1-2.8-1.4
			c-2.5,1.2-5,2.4-7.5,3.7c-14.9-7.6-29.8-15.1-44.8-22.7c0.1-4.6,0.1-9.1,0.2-13.7c-1.1-0.4-2.2-0.9-3.3-1.3
			c-6.2,3.3-12.4,6.6-18.6,9.8c-0.1,4.8-0.3,9.6-0.4,14.3c-13,22.4-25.9,44.8-38.9,67.2c-2.7,1.4-5.4,2.7-8.1,4.1
			C304,162.5,304.9,162.9,305.8,163.4z"/>
		<path class="st5" d="M303.1,180.4c0-6.1,0-12.2,0-18.4c0.9,0.5,1.8,0.9,2.6,1.4c0,6.1-0.1,12.2-0.1,18.3
			C304.8,181.2,304,180.8,303.1,180.4z"/>
	</g>
	<g>
		<path class="st3" d="M360.6,318.8c-8.8,4.5-17.6,8.9-26.4,13.4c0-15.3,0-30.6-0.1-45.9c8.8-4.5,17.6-8.9,26.4-13.4
			C360.6,288.2,360.6,303.5,360.6,318.8z"/>
		<path class="st4" d="M356.8,316.9c-6.3,3.2-12.6,6.4-18.8,9.6c0-12.8,0-25.5,0-38.3c6.3-3.2,12.6-6.4,18.8-9.6
			C356.8,291.4,356.8,304.1,356.8,316.9z"/>
	</g>
	<g>
		<path class="st3" d="M408.8,294.4c-8.8,4.5-17.6,8.9-26.4,13.4c0-15.3,0-30.6-0.1-45.9c8.8-4.5,17.6-8.9,26.4-13.4
			C408.8,263.8,408.8,279.1,408.8,294.4z"/>
		<path class="st4" d="M405,292.5c-6.3,3.2-12.6,6.4-18.8,9.6c0-12.8,0-25.5,0-38.3c6.3-3.2,12.6-6.4,18.8-9.6
			C405,267,405,279.8,405,292.5z"/>
	</g>
	<g>
		<path class="st3" d="M213,300.4c20.4,10.1,40.9,20.3,61.3,30.4c0-15.3,0-30.6,0.1-45.9c-20.4-10.4-40.8-20.8-61.2-31.2
			C213.2,269.2,213.1,284.8,213,300.4z"/>
		<path class="st4" d="M216.5,297.8c18,9.1,36.1,18.1,54.1,27.2v-38.3c-17.9-9.1-35.9-18.2-53.8-27.3
			C216.6,272.2,216.6,285,216.5,297.8z"/>
	</g>
	<g>
		<path class="st3" d="M360.6,261.7c-8.8,4.5-17.6,8.9-26.4,13.4c0-15.3,0-30.6-0.1-45.9c8.8-4.5,17.6-8.9,26.4-13.4
			C360.6,231.1,360.6,246.4,360.6,261.7z"/>
		<path class="st4" d="M356.8,259.8c-6.3,3.2-12.6,6.4-18.8,9.6c0-12.8,0-25.5,0-38.3c6.3-3.2,12.6-6.4,18.8-9.6
			C356.8,234.3,356.8,247.1,356.8,259.8z"/>
	</g>
	<g>
		<path class="st3" d="M408.8,237.4c-8.8,4.5-17.6,8.9-26.4,13.4c0-15.3,0-30.6-0.1-45.9c8.8-4.5,17.6-8.9,26.4-13.4
			C408.8,206.8,408.8,222.1,408.8,237.4z"/>
		<path class="st4" d="M405,235.5c-6.3,3.2-12.6,6.4-18.8,9.6c0-12.8,0-25.5,0-38.3c6.3-3.2,12.6-6.4,18.8-9.6
			C405,209.9,405,222.7,405,235.5z"/>
	</g>
	<g>
		<path class="st3" d="M213,243.3c20.4,10.1,40.9,20.3,61.3,30.4c0-15.3,0-30.6,0.1-45.9c-20.4-10.4-40.8-20.8-61.2-31.2
			C213.2,212.1,213.1,227.7,213,243.3z"/>
		<path class="st4" d="M216.5,240.7c18,9.1,36.1,18.1,54.1,27.2v-38.3c-17.9-9.1-35.9-18.2-53.8-27.3
			C216.6,215.1,216.6,227.9,216.5,240.7z"/>
	</g>
	<g>
		<path class="st3" d="M142.1,265.9c20.4,10.1,40.9,20.3,61.3,30.4c0-15.3,0-30.6,0.1-45.9c-20.4-10.4-40.8-20.8-61.2-31.2
			C142.2,234.7,142.1,250.3,142.1,265.9z"/>
		<path class="st4" d="M145.6,263.4c18,9.1,36.1,18.1,54.1,27.2v-38.3c-17.9-9.1-35.9-18.2-53.8-27.3
			C145.7,237.8,145.6,250.6,145.6,263.4z"/>
	</g>
	<g>
		<path class="st3" d="M142.1,208.8c20.4,10.1,40.9,20.3,61.3,30.4c0-15.3,0-30.6,0.1-45.9c-20.4-10.4-40.8-20.8-61.2-31.2
			C142.2,177.7,142.1,193.2,142.1,208.8z"/>
		<path class="st4" d="M145.6,206.3c18,9.1,36.1,18.1,54.1,27.2v-38.3c-17.9-9.1-35.9-18.2-53.8-27.3
			C145.7,180.7,145.6,193.5,145.6,206.3z"/>
	</g>
	<g>
		<path class="st3" d="M360.6,204.7c-8.8,4.5-17.6,8.9-26.4,13.4c0-15.3,0-30.6-0.1-45.9c8.8-4.5,17.6-8.9,26.4-13.4
			C360.6,174,360.6,189.4,360.6,204.7z"/>
		<path class="st4" d="M356.8,202.7c-6.3,3.2-12.6,6.4-18.8,9.6c0-12.8,0-25.5,0-38.3c6.3-3.2,12.6-6.4,18.8-9.6
			C356.8,177.2,356.8,190,356.8,202.7z"/>
	</g>
	<g>
		<path class="st3" d="M408.8,180.3c-8.8,4.5-17.6,8.9-26.4,13.4c0-15.3,0-30.6-0.1-45.9c8.8-4.5,17.6-8.9,26.4-13.4
			C408.8,149.7,408.8,165,408.8,180.3z"/>
		<path class="st4" d="M405,178.4c-6.3,3.2-12.6,6.4-18.8,9.6c0-12.8,0-25.5,0-38.3c6.3-3.2,12.6-6.4,18.8-9.6
			C405,152.9,405,165.6,405,178.4z"/>
	</g>
	<g>
		<path class="st3" d="M213,186.2c20.4,10.1,40.9,20.3,61.3,30.4c0-15.3,0-30.6,0.1-45.9c-20.4-10.4-40.8-20.8-61.2-31.2
			C213.2,155,213.1,170.6,213,186.2z"/>
		<path class="st4" d="M216.5,183.7c18,9.1,36.1,18.1,54.1,27.2v-38.3c-17.9-9.1-35.9-18.2-53.8-27.3
			C216.6,158.1,216.6,170.9,216.5,183.7z"/>
	</g>
	<g>
		<path class="st3" d="M142.1,151.8c20.4,10.1,40.9,20.3,61.3,30.4c0-15.3,0-30.6,0.1-45.9c-20.4-10.4-40.8-20.8-61.2-31.2
			C142.2,120.6,142.1,136.2,142.1,151.8z"/>
		<path class="st4" d="M145.6,149.2c18,9.1,36.1,18.1,54.1,27.2v-38.3c-17.9-9.1-35.9-18.2-53.8-27.3
			C145.7,123.6,145.6,136.4,145.6,149.2z"/>
	</g>
</g>
</svg>
