<?xml version="1.0" encoding="utf-8"?>
<!-- Generator: Adobe Illustrator 26.0.2, SVG Export Plug-In . SVG Version: 6.00 Build 0)  -->
<svg version="1.1" id="Laag_1" xmlns="http://www.w3.org/2000/svg" xmlns:xlink="http://www.w3.org/1999/xlink" x="0px" y="0px"
	 viewBox="0 0 485.6 357" style="enable-background:new 0 0 485.6 357;" xml:space="preserve">
<style type="text/css">
	.st0{fill:#7EB377;}
	.st1{fill:#EAC56A;}
	.st2{fill:#DDB55C;}
	.st3{fill:#1B3B45;}
	.st4{fill:#A4CDDA;}
	.st5{fill:#EFCA7A;}
	.st6{fill:#DFEBEC;}
	.st7{fill:#102C34;}
	.st8{fill:#8ACAD2;}
	.st9{fill:#264754;}
	.st10{fill:#D0DEE2;}
	.st11{fill:#BFD5DB;}
	.st12{fill:url(#SVGID_1_);}
	.st13{fill:url(#SVGID_00000144324318958013573730000011603152723829280423_);}
	.st14{fill:url(#SVGID_00000120550345777379121830000018383186798516619423_);}
	.st15{fill:url(#SVGID_00000098183087479808039210000002831816990544822176_);}
	.st16{fill:url(#SVGID_00000072989385315273679910000017539495885407907459_);}
	.st17{fill:url(#SVGID_00000006703485352086015320000009040901075717781664_);}
	.st18{fill:#2F505B;}
</style>
<g>
	<g id="Laag_2_00000012459107871279145350000004990360857555016089_">
		<g id="Laag_1-2_00000106131304171104850340000012384064875612502206_">
			<polygon class="st0" points="0,234.9 244.9,357 485.6,234.9 242.8,112.1 			"/>
		</g>
	</g>
	<path class="st1" d="M303,294.2c-58.2-29.5-116.4-59-174.5-88.5c-0.1-38.1-0.3-76.1-0.4-114.2c58.3,29.6,116.6,59.1,174.9,88.7
		C303,218.2,303,256.2,303,294.2z"/>
	<path class="st2" d="M305.8,181.7c-0.2,38.1-0.5,76.3-0.7,114.4c40.5-20.6,81.1-41.2,121.6-61.7c0.2-38.2,0.5-76.4,0.7-114.6
		C386.8,140.5,346.3,161.1,305.8,181.7z"/>
	<g>
		<path class="st3" d="M359.5,206c-8.8,4.5-17.6,8.9-26.4,13.4c0-15.3,0-30.6-0.1-45.9c8.8-4.5,17.6-8.9,26.4-13.4
			C359.5,175.4,359.5,190.7,359.5,206z"/>
		<path class="st4" d="M355.7,204.1c-6.3,3.2-12.6,6.4-18.8,9.6c0-12.8,0-25.5,0-38.3c6.3-3.2,12.6-6.4,18.8-9.6
			C355.7,178.6,355.7,191.4,355.7,204.1z"/>
	</g>
	<g>
		<path class="st3" d="M408.7,181.9c-8.8,4.5-17.6,8.9-26.4,13.4c0-15.3,0-30.6-0.1-45.9c8.8-4.5,17.6-8.9,26.4-13.4
			C408.7,151.2,408.7,166.6,408.7,181.9z"/>
		<path class="st4" d="M404.9,179.9c-6.3,3.2-12.6,6.4-18.8,9.6c0-12.8,0-25.5,0-38.3c6.3-3.2,12.6-6.4,18.8-9.6
			C404.9,154.4,404.9,167.2,404.9,179.9z"/>
	</g>
	<g>
		<path class="st3" d="M359.5,262.3c-8.8,4.5-17.6,8.9-26.4,13.4c0-15.3,0-30.6-0.1-45.9c8.8-4.5,17.6-8.9,26.4-13.4
			C359.5,231.7,359.5,247,359.5,262.3z"/>
		<path class="st4" d="M355.7,260.4c-6.3,3.2-12.6,6.4-18.8,9.6c0-12.8,0-25.5,0-38.3c6.3-3.2,12.6-6.4,18.8-9.6
			C355.7,234.9,355.7,247.7,355.7,260.4z"/>
	</g>
	<g>
		<path class="st3" d="M408.7,238c-8.8,4.5-17.6,8.9-26.4,13.4c0-15.3,0-30.6-0.1-45.9c8.8-4.5,17.6-8.9,26.4-13.4
			C408.7,207.4,408.7,222.7,408.7,238z"/>
		<path class="st4" d="M404.9,236.1c-6.3,3.2-12.6,6.4-18.8,9.6c0-12.8,0-25.5,0-38.3c6.3-3.2,12.6-6.4,18.8-9.6
			C404.9,210.6,404.9,223.3,404.9,236.1z"/>
	</g>
	<path class="st5" d="M305,296.2c-0.8-0.4-1.7-0.9-2.5-1.3c0.2-38.3,0.3-76.5,0.5-114.8c0.9,0.4,1.8,0.9,2.8,1.3
		C305.5,219.6,305.3,257.9,305,296.2z"/>
	<g>
		<path class="st6" d="M183.5,233.7c-9.4-4.7-18.7-9.5-28.1-14.2C124.7,235,93.9,250.5,63.1,266c9.4,4.7,18.9,9.4,28.3,14.1
			C122.1,264.6,152.8,249.2,183.5,233.7z"/>
	</g>
	<path class="st7" d="M183.5,233.7c-9.4-4.7-18.7-9.5-28.1-14.2c0-18.2,0-36.4,0-54.6c9.1,4.6,18.2,9.3,27.4,13.9
		C183.1,197,183.3,215.4,183.5,233.7z"/>
	<path class="st8" d="M171.9,185.9c0,4.3,0,8.6,0,13c-2.3-1.2-4.6-2.3-6.9-3.5c0-4.3,0-8.6,0-12.9c0-3.2,0-6.3,0-9.5
		c2.3,1.2,4.5,2.3,6.8,3.5C171.9,179.5,171.9,182.7,171.9,185.9z"/>
	<path class="st8" d="M171.9,214.4c0,3,0,5.9,0,8.9c-2.3-1.2-4.6-2.3-6.9-3.5c0-3,0-5.9,0-8.9c0-3.2,0-6.3,0-9.5
		c2.3,1.2,4.5,2.3,6.8,3.5C171.9,208.1,171.9,211.2,171.9,214.4z"/>
	<path class="st9" d="M151.2,166.9c1.4-0.7,2.8-1.4,4.3-2.1c9.1,4.6,18.2,9.3,27.3,13.9c-1.3,0.7-2.7,1.4-4,2
		C169.6,176.1,160.4,171.5,151.2,166.9z"/>
	<path class="st10" d="M178.8,183c-9.2-4.6-18.4-9.2-27.6-13.8c0-0.8,0-1.5,0-2.3c9.2,4.6,18.4,9.2,27.6,13.9
		C178.8,181.5,178.8,182.3,178.8,183z"/>
	<path class="st11" d="M182.9,181c-1.4,0.7-2.7,1.4-4.1,2c0-0.7,0-1.5,0-2.2c1.3-0.7,2.7-1.4,4-2C182.8,179.5,182.9,180.2,182.9,181
		z"/>
	
		<radialGradient id="SVGID_1_" cx="106.1399" cy="227.8236" r="14.8381" fx="104.2257" fy="213.1095" gradientUnits="userSpaceOnUse">
		<stop  offset="0.4363" style="stop-color:#38AB44"/>
		<stop  offset="1" style="stop-color:#2D8836"/>
	</radialGradient>
	<ellipse class="st12" cx="106.3" cy="228.8" rx="10.8" ry="10.1"/>
	
		<radialGradient id="SVGID_00000106833158285949882730000007153259365849098167_" cx="75.799" cy="243.0942" r="14.8381" fx="73.8848" fy="228.3801" gradientUnits="userSpaceOnUse">
		<stop  offset="0.4363" style="stop-color:#38AB44"/>
		<stop  offset="1" style="stop-color:#2D8836"/>
	</radialGradient>
	<ellipse style="fill:url(#SVGID_00000106833158285949882730000007153259365849098167_);" cx="76" cy="244.1" rx="10.8" ry="10.1"/>
	
		<radialGradient id="SVGID_00000151541943988238107190000001897141914187856005_" cx="152.3436" cy="256.0667" r="14.8381" fx="150.4294" fy="241.3525" gradientUnits="userSpaceOnUse">
		<stop  offset="0.4363" style="stop-color:#38AB44"/>
		<stop  offset="1" style="stop-color:#2D8836"/>
	</radialGradient>
	
		<ellipse style="fill:url(#SVGID_00000151541943988238107190000001897141914187856005_);" cx="152.6" cy="257.1" rx="10.8" ry="10.1"/>
	
		<radialGradient id="SVGID_00000132792516860265007890000014526495263726280861_" cx="121.9869" cy="271.3373" r="14.8381" fx="120.0727" fy="256.6231" gradientUnits="userSpaceOnUse">
		<stop  offset="0.4363" style="stop-color:#38AB44"/>
		<stop  offset="1" style="stop-color:#2D8836"/>
	</radialGradient>
	
		<ellipse style="fill:url(#SVGID_00000132792516860265007890000014526495263726280861_);" cx="122.2" cy="272.3" rx="10.8" ry="10.1"/>
	
		<radialGradient id="SVGID_00000090258640070556730850000014263987027640993723_" cx="136.4809" cy="212.31" r="14.8381" fx="134.5666" fy="197.5959" gradientUnits="userSpaceOnUse">
		<stop  offset="0.4363" style="stop-color:#38AB44"/>
		<stop  offset="1" style="stop-color:#2D8836"/>
	</radialGradient>
	
		<ellipse style="fill:url(#SVGID_00000090258640070556730850000014263987027640993723_);" cx="136.7" cy="213.3" rx="10.8" ry="10.1"/>
	
		<radialGradient id="SVGID_00000093136931888822999910000001133960084024579498_" cx="182.6688" cy="240.553" r="14.8381" fx="180.7546" fy="225.8389" gradientUnits="userSpaceOnUse">
		<stop  offset="0.4363" style="stop-color:#38AB44"/>
		<stop  offset="1" style="stop-color:#2D8836"/>
	</radialGradient>
	
		<ellipse style="fill:url(#SVGID_00000093136931888822999910000001133960084024579498_);" cx="182.9" cy="241.5" rx="10.8" ry="10.1"/>
	<g>
		<path class="st3" d="M212.1,186.1c20.4,10.1,40.9,20.3,61.3,30.4c0-15.3,0-30.6,0.1-45.9c-20.4-10.4-40.8-20.8-61.2-31.2
			C212.3,155,212.2,170.5,212.1,186.1z"/>
		<path class="st4" d="M215.6,183.6c18,9.1,36.1,18.1,54.1,27.2v-38.3c-17.9-9.1-35.9-18.2-53.8-27.3
			C215.7,158,215.7,170.8,215.6,183.6z"/>
	</g>
	<g>
		<path class="st3" d="M212.1,243.2c20.4,10.1,40.9,20.3,61.3,30.4c0-15.3,0-30.6,0.1-45.9c-20.4-10.4-40.8-20.8-61.2-31.2
			C212.3,212,212.2,227.6,212.1,243.2z"/>
		<path class="st4" d="M215.6,240.6c18,9.1,36.1,18.1,54.1,27.2v-38.3c-17.9-9.1-35.9-18.2-53.8-27.3
			C215.7,215,215.7,227.8,215.6,240.6z"/>
	</g>
	<g>
		<path class="st3" d="M141.4,150.7c20.4,10.1,40.9,20.3,61.3,30.4c0-15.3,0-30.6,0.1-45.9c-20.4-10.4-40.8-20.8-61.2-31.2
			C141.5,119.5,141.4,135.1,141.4,150.7z"/>
		<path class="st4" d="M144.9,148.1c18,9.1,36.1,18.1,54.1,27.2v-38.3c-17.9-9.1-35.9-18.2-53.8-27.3
			C145,122.5,144.9,135.3,144.9,148.1z"/>
	</g>
	<g>
		<path class="st11" d="M303.4,173.4c41.1-20.9,82.1-41.8,123.2-62.7C367.5,80.5,308.4,50.2,249.3,20
			C208.2,41.1,167,62.2,125.9,83.3C185.1,113.3,244.3,143.4,303.4,173.4z"/>
		<path class="st10" d="M303.4,180.5c0-2.4,0-4.7,0-7.1c-59.2-30-118.3-60.1-177.5-90.1c0,2.4,0,4.7,0,7.1
			C185.1,120.4,244.3,150.4,303.4,180.5"/>
		<path class="st18" d="M193.1,0C249,28.4,304.9,56.8,360.9,85.2c-18.7,28.5-37.4,57-56.1,85.5c-58.4-29.8-116.9-59.5-175.3-89.3
			C150.6,54.3,171.9,27.1,193.1,0z"/>
		<path class="st3" d="M424,107.9c-19.1-6.6-38.1-13.2-57.2-19.8C308.9,58.8,251,29.4,193.1,0c18.3,6.2,36.6,12.4,54.8,18.6
			C306.6,48.3,365.3,78.1,424,107.9z"/>
		<path class="st2" d="M305.8,163.4c0,6.1-0.1,12.2-0.1,18.3c40.5-20.6,81.1-41.2,121.6-61.7c0-6,0-12,0-18
			c-2.8,1.4-5.5,2.8-8.3,4.2c-15.6-7.9-31.2-15.7-46.8-23.6c0.1-5,0.1-9.9,0.2-14.9c-6.2,3.3-12.5,6.7-18.7,10
			c-0.1,4.7-0.2,9.4-0.3,14.1c-13.3,22.5-26.7,45.1-40,67.6C310.8,160.8,308.3,162.1,305.8,163.4z"/>
		<path class="st11" d="M305.8,163.4c2.5-1.3,5.1-2.6,7.6-3.9c13.3-22.5,26.7-45.1,40-67.6c0.1-4.7,0.2-9.4,0.3-14.1
			c6.2-3.3,12.5-6.7,18.7-10c-0.1,5-0.1,9.9-0.2,14.9c15.6,7.9,31.2,15.7,46.8,23.6c2.8-1.4,5.5-2.8,8.3-4.2c-0.9-0.5-1.9-1-2.8-1.4
			c-2.5,1.2-5,2.4-7.5,3.7c-14.9-7.6-29.8-15.1-44.8-22.7c0.1-4.6,0.1-9.1,0.2-13.7c-1.1-0.4-2.2-0.9-3.3-1.3
			c-6.2,3.3-12.4,6.6-18.6,9.8c-0.1,4.8-0.3,9.6-0.4,14.3c-13,22.4-25.9,44.8-38.9,67.2c-2.7,1.4-5.4,2.7-8.1,4.1
			C304,162.5,304.9,162.9,305.8,163.4z"/>
		<path class="st5" d="M303.1,180.4c0-6.1,0-12.2,0-18.4c0.9,0.5,1.8,0.9,2.6,1.4c0,6.1-0.1,12.2-0.1,18.3
			C304.8,181.2,303.9,180.8,303.1,180.4z"/>
	</g>
</g>
</svg>
