<?xml version="1.0" encoding="utf-8"?>
<!-- Generator: Adobe Illustrator 26.0.2, SVG Export Plug-In . SVG Version: 6.00 Build 0)  -->
<svg version="1.1" id="Laag_1" xmlns="http://www.w3.org/2000/svg" xmlns:xlink="http://www.w3.org/1999/xlink" x="0px" y="0px"
	 viewBox="0 0 443.5 386.2" style="enable-background:new 0 0 443.5 386.2;" xml:space="preserve">
<style type="text/css">
	.st0{fill:#142E35;}
	.st1{font-family:'QUARTZO-Bold';}
	.st2{font-size:85px;}
	.st3{clip-path:url(#SVGID_00000026857887963429402380000004252948552115761542_);}
	.st4{font-size:113px;}
	.st5{letter-spacing:1;}
	.st6{font-size:84px;}
	.st7{letter-spacing:-1;}
</style>
<g>
	<text transform="matrix(1 0 0 1 146.0749 171.8419)" class="st0 st1 st2">T</text>
	<text transform="matrix(1 0 0 1 191.7188 171.8419)" class="st0 st1 st2">h</text>
	<text transform="matrix(1 0 0 1 233.2832 171.8419)" class="st0 st1 st2">e</text>
	<g id="Group_106">
		<g>
			<defs>
				<rect id="SVGID_1_" x="52.8" y="62.2" width="337.8" height="261.8"/>
			</defs>
			<clipPath id="SVGID_00000070115948527013500620000011340697510911542438_">
				<use xlink:href="#SVGID_1_"  style="overflow:visible;"/>
			</clipPath>
			<g id="Group_105-2" style="clip-path:url(#SVGID_00000070115948527013500620000011340697510911542438_);">
				<text transform="matrix(1 0 0 1 146.0789 246.6229)" class="st0 st1 st4">o</text>
				<text transform="matrix(1 0 0 1 218.6246 246.6229)" class="st0 st1 st4 st5">un</text>
				<text transform="matrix(1 0 0 1 328.7964 246.6229)" class="st0 st1 st4">d</text>
				<path id="Path_173" class="st0" d="M144.8,214c-0.1,1.1-0.3,2.1-0.4,3.2c-1,7.3-3.9,14.3-8.3,20.2c-3.6,5-8.4,9-14.1,11.5
					c0.4,1.6,0.7,3.2,1.1,4.9c1.4,6.4,2.8,12.7,4.1,19.1c1.3,6.9,1.2,13.8-1.3,20.5c-3.3,8.9-9.8,14.2-19,16.2
					c-4.9,1.3-10.1,1.1-15-0.4c-9.4-3.2-15.1-9.8-17.5-19.3c-1.3-4.6-0.3-9.6,2.8-13.3c3.6-4.5,8.5-6.4,14.2-5.3
					c6,1.2,9.9,4.9,11.5,10.8c2.2,7.9-2.4,16.2-10.3,18.4c-0.2,0.1-0.5,0.1-0.8,0.2c-0.8,0.2-1.6,0.3-2.4,0.3c-0.8,0.1-1.6,0-2.6,0
					c0.6,0.7,1.3,1.3,2,1.9c1.9,1.3,4.1,2.1,6.3,2.3c4.8,0.7,9.8,0.2,14.4-1.4c3.5-1.2,6-3.7,8-6.7c2.1-3.3,3.5-7.1,4-11
					c0.8-5.9,0.4-12-1-17.8c-1.3-5.7-2.4-11.3-3.6-17c0-0.2-0.1-0.4-0.2-0.7c-1.6,0.3-3.2,0.6-4.8,0.8c-3.8,0.6-7.7,0.7-11.5,0.3
					c-8.3-0.8-16.3-3.5-23.3-7.9c-10.3-6.5-17.8-15.3-21.9-26.9c-2.1-6-2.9-12.3-2.4-18.6c0.8-10.9,4.6-20.8,10.4-30
					c5-8,10-13.4,16.9-20.5c4.7-4.8,8.8-8.5,11.8-11.1c-4.5-14.7-5.9-26.4-6.2-32.3c-0.1-4.4,0-8.9,0.4-13.3
					c0.1-0.9,0.2-2.6,0.4-3.9c0.4-2.5,2.3-15.6,12.5-21.8c1.9-1.2,6.3-3.8,11.8-3c7.3,1.1,11.4,7.6,12.8,10c3,4.7,3.5,9.2,4.2,14.9
					c0.5,4.4,0.6,8.9,0.1,13.3c-1,9.2-3.9,15.7-7,22.6c-4.1,8.7-9,16.9-14.8,24.5c-1.4,1.9-2.9,3.7-4.4,5.5
					c-0.3,0.3-0.4,0.7-0.3,1.1c1.2,5.5,2.4,11,3.6,16.5c0.5,2.5,1.1,5,1.6,7.5c0,0.2,0.1,0.4,0.2,0.6c1.1-0.1,2.2-0.3,3.4-0.3
					c8.7-0.5,16,2.6,22.5,8.2c3.5,2.9,6.5,6.4,8.7,10.4c1.8,3.5,2.9,7.3,3.2,11.3c0,0.2,0.1,0.4,0.1,0.6L144.8,214z M115.6,244.7
					l-10.2-48.3l-0.3,0c-3,0.4-5.9,1.5-8.3,3.3c-2.4,1.8-4.3,4.3-5.5,7c-1.6,3.3-2.4,6.9-2.2,10.5c0,3.1,0.9,6.1,2.5,8.7
					c2.3,3.5,5.5,5.1,5,5.9c-0.3,0.6-2.3,0.1-3,0c-3.1-0.8-6-2.4-8.3-4.7c-3.7-3.9-4.7-8.4-5.3-11.4c-0.9-4.2-0.8-8.5,0.3-12.6
					c2.6-9.6,8.8-16.4,17.4-21.1c1.3-0.7,2.7-1.3,4.2-1.9c-1.8-7.8-3.5-15.6-5.3-23.4c-1.8,1.7-4.3,4.1-7.4,7.2
					c-5.3,5.3-7.9,7.9-9.9,10.3c-3.1,3.6-9,10.5-11.9,21.1c-1.7,5.5-2.1,11.3-1.3,17c0.8,5.7,2.9,11.1,6,16
					c4.4,7.2,11.1,12.7,19,15.5c5.9,2.1,12.1,2.8,18.3,2C111.5,245.6,113.5,245.1,115.6,244.7 M96.8,132.4c0.3-0.3,0.5-0.4,0.7-0.6
					c1.1-1,2.2-2,3.2-3c3.3-3.2,6.7-6.3,9.3-10.2c3.6-5.3,6.2-11.1,8-17.3c1.2-5.7,2.9-13.7-1.6-18c-2.3-2.1-5.5-3.1-8.6-2.4
					c-1.2,0.3-3.6,1.1-7.1,6.1c-4.4,6.8-6.8,14.7-7,22.7c-0.1,4,0.2,8,0.9,12C95.3,125.2,96.1,128.7,96.8,132.4 M120.7,242.4
					c0.2-0.1,0.3-0.1,0.4-0.1c3.3-1.6,6.1-4.1,8.2-7.2c3.6-5.7,5.3-12.5,4.6-19.2c-0.4-4.5-2.2-8.7-5.3-12
					c-3.7-4.1-8.6-6.8-14.1-7.7c-1.3-0.2-2.5-0.3-3.9-0.4L120.7,242.4"/>
				<text transform="matrix(1 0 0 1 137.2859 304.0439)" class="st0 st1 st6 st7">c</text>
				<text transform="matrix(1 0 0 1 185.5007 304.0439)" class="st0 st1 st6">i</text>
				<text transform="matrix(1 0 0 1 211.2043 304.0439)" class="st0 st1 st6">ty</text>
			</g>
		</g>
	</g>
</g>
</svg>
