<?xml version="1.0" encoding="utf-8"?>
<!-- Generator: Adobe Illustrator 26.0.2, SVG Export Plug-In . SVG Version: 6.00 Build 0)  -->
<svg version="1.1" id="Laag_1" xmlns="http://www.w3.org/2000/svg" xmlns:xlink="http://www.w3.org/1999/xlink" x="0px" y="0px"
	 viewBox="0 0 485.6 413.7" style="enable-background:new 0 0 485.6 413.7;" xml:space="preserve">
<style type="text/css">
	.st0{fill:#7EB377;}
	.st1{fill:#EAC56A;}
	.st2{fill:#DDB55C;}
	.st3{fill:#1B3B45;}
	.st4{fill:#A4CDDA;}
	.st5{fill:#EFCA7A;}
	.st6{fill:#DFEBEC;}
	.st7{fill:#102C34;}
	.st8{fill:#8ACAD2;}
	.st9{fill:#264754;}
	.st10{fill:#D0DEE2;}
	.st11{fill:#BFD5DB;}
	.st12{fill:url(#SVGID_1_);}
	.st13{fill:url(#SVGID_00000108297160471310479720000008597709697493148824_);}
	.st14{fill:url(#SVGID_00000177484341918103500800000007646944041665682356_);}
	.st15{fill:url(#SVGID_00000003801874746089765890000014200733563366932401_);}
	.st16{fill:url(#SVGID_00000076575464375956358660000011388488551747542182_);}
	.st17{fill:url(#SVGID_00000089536070159440518150000009389870655114382725_);}
	.st18{fill:#2F505B;}
</style>
<g>
	<g id="Laag_2_00000101818248606439635250000009054258713245136785_">
		<g id="Laag_1-2_00000031891265747618131860000004590676258384636835_">
			<polygon class="st0" points="0,291.6 244.9,413.7 485.6,291.6 242.8,168.8 			"/>
		</g>
	</g>
	<path class="st1" d="M303,350.9c-58.2-29.5-116.4-59-174.5-88.5c-0.3-57-0.6-114-0.9-171c58.5,29.7,117,59.3,175.6,89
		C303.1,237.3,303.1,294.1,303,350.9z"/>
	<path class="st2" d="M305.4,181.7c-0.1,57.1-0.2,114.2-0.4,171.2c40.5-20.6,81.1-41.2,121.6-61.7c0.1-57.1,0.2-114.2,0.4-171.2
		C386.5,140.5,345.9,161.1,305.4,181.7z"/>
	<g>
		<path class="st3" d="M360.6,319.1c-8.8,4.5-17.6,8.9-26.4,13.4c0-15.3,0-30.6-0.1-45.9c8.8-4.5,17.6-8.9,26.4-13.4
			C360.6,288.5,360.6,303.8,360.6,319.1z"/>
		<path class="st4" d="M356.8,317.2c-6.3,3.2-12.6,6.4-18.8,9.6c0-12.8,0-25.5,0-38.3c6.3-3.2,12.6-6.4,18.8-9.6
			C356.8,291.7,356.8,304.5,356.8,317.2z"/>
	</g>
	<g>
		<path class="st3" d="M408.8,294.7c-8.8,4.5-17.6,8.9-26.4,13.4c0-15.3,0-30.6-0.1-45.9c8.8-4.5,17.6-8.9,26.4-13.4
			C408.8,264.1,408.8,279.4,408.8,294.7z"/>
		<path class="st4" d="M405,292.8c-6.3,3.2-12.6,6.4-18.8,9.6c0-12.8,0-25.5,0-38.3c6.3-3.2,12.6-6.4,18.8-9.6
			C405,267.3,405,280.1,405,292.8z"/>
	</g>
	<path class="st5" d="M305,352.9c-0.8-0.4-1.7-0.9-2.5-1.3c0.1-57.1,0.2-114.1,0.4-171.2c0.9,0.4,1.7,0.9,2.6,1.3
		C305.3,238.8,305.1,295.8,305,352.9z"/>
	<g>
		<path class="st6" d="M183.5,290.4c-9.4-4.7-18.7-9.5-28.1-14.2c-30.8,15.5-61.6,31.1-92.4,46.6c9.4,4.7,18.9,9.4,28.3,14.1
			C122.1,321.4,152.8,305.9,183.5,290.4z"/>
	</g>
	<path class="st7" d="M183.5,290.4c-9.4-4.7-18.7-9.5-28.1-14.2c0-18.2,0-36.4,0-54.6c9.1,4.6,18.2,9.3,27.4,13.9
		C183.1,253.8,183.3,272.1,183.5,290.4z"/>
	<path class="st8" d="M171.9,242.6c0,4.3,0,8.6,0,13c-2.3-1.2-4.6-2.3-6.9-3.5c0-4.3,0-8.6,0-12.9c0-3.2,0-6.3,0-9.5
		c2.3,1.2,4.5,2.3,6.8,3.5C171.9,236.3,171.9,239.5,171.9,242.6z"/>
	<path class="st8" d="M171.9,271.2c0,3,0,5.9,0,8.9c-2.3-1.2-4.6-2.3-6.9-3.5c0-3,0-5.9,0-8.9c0-3.2,0-6.3,0-9.5
		c2.3,1.2,4.5,2.3,6.8,3.5C171.9,264.8,171.9,268,171.9,271.2z"/>
	<path class="st9" d="M151.2,223.7c1.4-0.7,2.8-1.4,4.3-2.1c9.1,4.6,18.2,9.3,27.3,13.9c-1.3,0.7-2.7,1.4-4,2
		C169.6,232.9,160.4,228.3,151.2,223.7z"/>
	<path class="st10" d="M178.8,239.8c-9.2-4.6-18.4-9.2-27.6-13.8c0-0.8,0-1.5,0-2.3c9.2,4.6,18.4,9.2,27.6,13.9
		C178.8,238.3,178.8,239,178.8,239.8z"/>
	<path class="st11" d="M182.9,237.7c-1.4,0.7-2.7,1.4-4.1,2c0-0.7,0-1.5,0-2.2c1.3-0.7,2.7-1.4,4-2
		C182.8,236.2,182.9,237,182.9,237.7z"/>
	
		<radialGradient id="SVGID_1_" cx="106.1399" cy="284.595" r="14.8381" fx="104.2257" fy="269.8809" gradientUnits="userSpaceOnUse">
		<stop  offset="0.4363" style="stop-color:#38AB44"/>
		<stop  offset="1" style="stop-color:#2D8836"/>
	</radialGradient>
	<ellipse class="st12" cx="106.3" cy="285.6" rx="10.8" ry="10.1"/>
	
		<radialGradient id="SVGID_00000016039711258300343450000002685365381504730760_" cx="75.799" cy="299.8656" r="14.8381" fx="73.8848" fy="285.1515" gradientUnits="userSpaceOnUse">
		<stop  offset="0.4363" style="stop-color:#38AB44"/>
		<stop  offset="1" style="stop-color:#2D8836"/>
	</radialGradient>
	<ellipse style="fill:url(#SVGID_00000016039711258300343450000002685365381504730760_);" cx="76" cy="300.9" rx="10.8" ry="10.1"/>
	
		<radialGradient id="SVGID_00000029040916237735564030000015227537961161046426_" cx="152.3436" cy="312.838" r="14.8381" fx="150.4294" fy="298.1239" gradientUnits="userSpaceOnUse">
		<stop  offset="0.4363" style="stop-color:#38AB44"/>
		<stop  offset="1" style="stop-color:#2D8836"/>
	</radialGradient>
	
		<ellipse style="fill:url(#SVGID_00000029040916237735564030000015227537961161046426_);" cx="152.6" cy="313.8" rx="10.8" ry="10.1"/>
	
		<radialGradient id="SVGID_00000079446392161675396730000009535664230380141502_" cx="121.9869" cy="328.1086" r="14.8381" fx="120.0727" fy="313.3945" gradientUnits="userSpaceOnUse">
		<stop  offset="0.4363" style="stop-color:#38AB44"/>
		<stop  offset="1" style="stop-color:#2D8836"/>
	</radialGradient>
	
		<ellipse style="fill:url(#SVGID_00000079446392161675396730000009535664230380141502_);" cx="122.2" cy="329.1" rx="10.8" ry="10.1"/>
	
		<radialGradient id="SVGID_00000000195392808063550920000006599042972215024005_" cx="136.4809" cy="269.0814" r="14.8381" fx="134.5666" fy="254.3672" gradientUnits="userSpaceOnUse">
		<stop  offset="0.4363" style="stop-color:#38AB44"/>
		<stop  offset="1" style="stop-color:#2D8836"/>
	</radialGradient>
	
		<ellipse style="fill:url(#SVGID_00000000195392808063550920000006599042972215024005_);" cx="136.7" cy="270.1" rx="10.8" ry="10.1"/>
	
		<radialGradient id="SVGID_00000126298237678192839410000001034502916230115748_" cx="182.6688" cy="297.3244" r="14.8381" fx="180.7546" fy="282.6103" gradientUnits="userSpaceOnUse">
		<stop  offset="0.4363" style="stop-color:#38AB44"/>
		<stop  offset="1" style="stop-color:#2D8836"/>
	</radialGradient>
	
		<ellipse style="fill:url(#SVGID_00000126298237678192839410000001034502916230115748_);" cx="182.9" cy="298.3" rx="10.8" ry="10.1"/>
	<g>
		<path class="st3" d="M212.3,299.9c20.4,10.1,40.9,20.3,61.3,30.4c0-15.3,0-30.6,0.1-45.9c-20.4-10.4-40.8-20.8-61.2-31.2
			C212.5,268.8,212.4,284.4,212.3,299.9z"/>
		<path class="st4" d="M215.8,297.4c18,9.1,36.1,18.1,54.1,27.2v-38.3c-17.9-9.1-35.9-18.2-53.8-27.3
			C216,271.8,215.9,284.6,215.8,297.4z"/>
	</g>
	<g>
		<path class="st11" d="M303.2,173.4c41.1-20.9,82.1-41.8,123.2-62.7C367.2,80.5,308.1,50.2,249,20c-41.1,21.1-82.2,42.2-123.3,63.3
			C184.8,113.3,244,143.4,303.2,173.4z"/>
		<path class="st10" d="M303.2,180.5c0-2.4,0-4.7,0-7.1c-59.2-30-118.3-60.1-177.5-90.1c0,2.4,0,4.7,0,7.1
			C184.8,120.4,244,150.4,303.2,180.5"/>
		<path class="st18" d="M192.8,0c55.9,28.4,111.8,56.8,167.8,85.2c-18.7,28.5-37.4,57-56.1,85.5c-58.4-29.8-116.9-59.5-175.3-89.3
			C150.4,54.3,171.6,27.1,192.8,0z"/>
		<path class="st3" d="M423.7,107.9c-19.1-6.6-38.1-13.2-57.2-19.8C308.6,58.8,250.7,29.4,192.8,0c18.3,6.2,36.6,12.4,54.8,18.6
			C306.4,48.3,365,78.1,423.7,107.9z"/>
		<path class="st2" d="M305.5,163.4c0,6.1-0.1,12.2-0.1,18.3c40.5-20.6,81.1-41.2,121.6-61.7c0-6,0-12,0-18
			c-2.8,1.4-5.5,2.8-8.3,4.2c-15.6-7.9-31.2-15.7-46.8-23.6c0.1-5,0.1-9.9,0.2-14.9c-6.2,3.3-12.5,6.7-18.7,10
			c-0.1,4.7-0.2,9.4-0.3,14.1c-13.3,22.5-26.7,45.1-40,67.6C310.6,160.8,308,162.1,305.5,163.4z"/>
		<path class="st11" d="M305.5,163.4c2.5-1.3,5.1-2.6,7.6-3.9c13.3-22.5,26.7-45.1,40-67.6c0.1-4.7,0.2-9.4,0.3-14.1
			c6.2-3.3,12.5-6.7,18.7-10c-0.1,5-0.1,9.9-0.2,14.9c15.6,7.9,31.2,15.7,46.8,23.6c2.8-1.4,5.5-2.8,8.3-4.2c-0.9-0.5-1.9-1-2.8-1.4
			c-2.5,1.2-5,2.4-7.5,3.7C401.8,96.6,386.9,89,372,81.5c0.1-4.6,0.1-9.1,0.2-13.7c-1.1-0.4-2.2-0.9-3.3-1.3
			c-6.2,3.3-12.4,6.6-18.6,9.8c-0.1,4.8-0.3,9.6-0.4,14.3c-13,22.4-25.9,44.8-38.9,67.2c-2.7,1.4-5.4,2.7-8.1,4.1
			C303.7,162.5,304.6,162.9,305.5,163.4z"/>
		<path class="st5" d="M302.8,180.4c0-6.1,0-12.2,0-18.4c0.9,0.5,1.8,0.9,2.6,1.4c0,6.1-0.1,12.2-0.1,18.3
			C304.5,181.2,303.7,180.8,302.8,180.4z"/>
	</g>
	<g>
		<path class="st3" d="M360.6,262.2c-8.8,4.5-17.6,8.9-26.4,13.4c0-15.3,0-30.6-0.1-45.9c8.8-4.5,17.6-8.9,26.4-13.4
			C360.6,231.6,360.6,246.9,360.6,262.2z"/>
		<path class="st4" d="M356.8,260.3c-6.3,3.2-12.6,6.4-18.8,9.6c0-12.8,0-25.5,0-38.3c6.3-3.2,12.6-6.4,18.8-9.6
			C356.8,234.8,356.8,247.5,356.8,260.3z"/>
	</g>
	<g>
		<path class="st3" d="M408.8,237.8c-8.8,4.5-17.6,8.9-26.4,13.4c0-15.3,0-30.6-0.1-45.9c8.8-4.5,17.6-8.9,26.4-13.4
			C408.8,207.2,408.8,222.5,408.8,237.8z"/>
		<path class="st4" d="M405,235.9c-6.3,3.2-12.6,6.4-18.8,9.6c0-12.8,0-25.5,0-38.3c6.3-3.2,12.6-6.4,18.8-9.6
			C405,210.4,405,223.2,405,235.9z"/>
	</g>
	<g>
		<path class="st3" d="M212.3,243.8c20.4,10.1,40.9,20.3,61.3,30.4c0-15.3,0-30.6,0.1-45.9c-20.4-10.4-40.8-20.8-61.2-31.2
			C212.5,212.6,212.4,228.2,212.3,243.8z"/>
		<path class="st4" d="M215.8,241.2c18,9.1,36.1,18.1,54.1,27.2v-38.3c-17.9-9.1-35.9-18.2-53.8-27.3
			C216,215.6,215.9,228.4,215.8,241.2z"/>
	</g>
	<g>
		<path class="st3" d="M360.6,205.1c-8.8,4.5-17.6,8.9-26.4,13.4c0-15.3,0-30.6-0.1-45.9c8.8-4.5,17.6-8.9,26.4-13.4
			C360.6,174.5,360.6,189.8,360.6,205.1z"/>
		<path class="st4" d="M356.8,203.2c-6.3,3.2-12.6,6.4-18.8,9.6c0-12.8,0-25.5,0-38.3c6.3-3.2,12.6-6.4,18.8-9.6
			C356.8,177.7,356.8,190.5,356.8,203.2z"/>
	</g>
	<g>
		<path class="st3" d="M408.8,180.8c-8.8,4.5-17.6,8.9-26.4,13.4c0-15.3,0-30.6-0.1-45.9c8.8-4.5,17.6-8.9,26.4-13.4
			C408.8,150.2,408.8,165.5,408.8,180.8z"/>
		<path class="st4" d="M405,178.9c-6.3,3.2-12.6,6.4-18.8,9.6c0-12.8,0-25.5,0-38.3c6.3-3.2,12.6-6.4,18.8-9.6
			C405,153.3,405,166.1,405,178.9z"/>
	</g>
	<g>
		<path class="st3" d="M212.3,186.7c20.4,10.1,40.9,20.3,61.3,30.4c0-15.3,0-30.6,0.1-45.9c-20.4-10.4-40.8-20.8-61.2-31.2
			C212.5,155.5,212.4,171.1,212.3,186.7z"/>
		<path class="st4" d="M215.8,184.1c18,9.1,36.1,18.1,54.1,27.2v-38.3c-17.9-9.1-35.9-18.2-53.8-27.3
			C216,158.5,215.9,171.3,215.8,184.1z"/>
	</g>
	<g>
		<path class="st3" d="M141.4,209.3c20.4,10.1,40.9,20.3,61.3,30.4c0-15.3,0-30.6,0.1-45.9c-20.4-10.4-40.8-20.8-61.2-31.2
			C141.5,178.1,141.4,193.7,141.4,209.3z"/>
		<path class="st4" d="M144.9,206.8c18,9.1,36.1,18.1,54.1,27.2v-38.3c-17.9-9.1-35.9-18.2-53.8-27.3
			C145,181.2,144.9,194,144.9,206.8z"/>
	</g>
	<g>
		<path class="st3" d="M141.4,152.2c20.4,10.1,40.9,20.3,61.3,30.4c0-15.3,0-30.6,0.1-45.9c-20.4-10.4-40.8-20.8-61.2-31.2
			C141.5,121.1,141.4,136.6,141.4,152.2z"/>
		<path class="st4" d="M144.9,149.7c18,9.1,36.1,18.1,54.1,27.2v-38.3c-17.9-9.1-35.9-18.2-53.8-27.3
			C145,124.1,144.9,136.9,144.9,149.7z"/>
	</g>
</g>
</svg>
