<?xml version="1.0" encoding="utf-8"?>
<!-- Generator: Adobe Illustrator 26.0.2, SVG Export Plug-In . SVG Version: 6.00 Build 0)  -->
<svg version="1.1" id="Layer_1" xmlns="http://www.w3.org/2000/svg" xmlns:xlink="http://www.w3.org/1999/xlink" x="0px" y="0px"
	 viewBox="0 0 47.5 47.5" style="enable-background:new 0 0 47.5 47.5;" xml:space="preserve">
<style type="text/css">
	.st0{clip-path:url(#SVGID_00000058572404784447401420000015691187295981853831_);}
	.st1{fill:#EAC56A;}
	.st2{fill:#1A3B45;}
	.st3{fill:#FFFFFF;}
</style>
<g>
	<g>
		<defs>
			<rect id="SVGID_1_" y="-11.9" width="59.4" height="59.4"/>
		</defs>
		<clipPath id="SVGID_00000132076073503022419170000015904433511299055027_">
			<use xlink:href="#SVGID_1_"  style="overflow:visible;"/>
		</clipPath>
		
			<g transform="matrix(1.25 0 0 -1.25 0 47.5)" style="clip-path:url(#SVGID_00000132076073503022419170000015904433511299055027_);">
			<path class="st1" d="M38,19C38,8.5,29.5,0,19,0S0,8.5,0,19s8.5,19,19,19S38,29.5,38,19"/>
			<path class="st2" d="M14.5,25.1c0-2.8-1.2-6.1-2.8-6.1s-2.8,3.4-2.8,6.1s1.2,6.1,2.8,6.1S14.5,27.9,14.5,25.1"/>
			<path class="st2" d="M29.1,25.1c0-2.8-1.2-6.1-2.8-6.1s-2.8,3.4-2.8,6.1s1.2,6.1,2.8,6.1S29.1,27.9,29.1,25.1"/>
			<path class="st2" d="M19,14.5c-4,0-6.7,0.4-10.1,1.1c-0.8,0.1-2.2,0-2.2-2.2C6.7,8.9,11.8,3.4,19,3.4s12.3,5.6,12.3,10.1
				c0,2.2-1.5,2.3-2.2,2.2C25.7,15,23,14.5,19,14.5"/>
			<path class="st3" d="M8.9,13.4c0,0,3.4-1.1,10.1-1.1s10.1,1.1,10.1,1.1S26.8,8.9,19,8.9S8.9,13.4,8.9,13.4"/>
		</g>
	</g>
</g>
</svg>
