<?xml version="1.0" encoding="utf-8"?>
<!-- Generator: Adobe Illustrator 26.0.2, SVG Export Plug-In . SVG Version: 6.00 Build 0)  -->
<svg version="1.1" id="Layer_1" xmlns="http://www.w3.org/2000/svg" xmlns:xlink="http://www.w3.org/1999/xlink" x="0px" y="0px"
	 viewBox="0 0 47.5 47.5" style="enable-background:new 0 0 47.5 47.5;" xml:space="preserve">
<style type="text/css">
	.st0{clip-path:url(#SVGID_00000003093286239530381240000000736598912089577873_);}
	.st1{fill:#EAC56A;}
	.st2{fill:#1A3B45;}
</style>
<g>
	<g>
		<g>
			<defs>
				<rect id="SVGID_1_" y="-11.9" width="74.2" height="74.2"/>
			</defs>
			<clipPath id="SVGID_00000013192360254217394020000011826114637623573893_">
				<use xlink:href="#SVGID_1_"  style="overflow:visible;"/>
			</clipPath>
			
				<g transform="matrix(1.25 0 0 -1.25 0 47.5)" style="clip-path:url(#SVGID_00000013192360254217394020000011826114637623573893_);">
				<path class="st1" d="M38,19C38,8.5,29.5,0,19,0S0,8.5,0,19s8.5,19,19,19S38,29.5,38,19"/>
				<path class="st2" d="M14.5,20.7c0-2.1-1.2-3.9-2.8-3.9s-2.8,1.8-2.8,3.9s1.2,3.9,2.8,3.9S14.5,22.8,14.5,20.7"/>
				<path class="st2" d="M29.1,20.7c0-2.1-1.2-3.9-2.8-3.9s-2.8,1.8-2.8,3.9s1.2,3.9,2.8,3.9S29.1,22.8,29.1,20.7"/>
				<path class="st2" d="M10.6,9.8c0-0.2,1.3-4.9,8.4-4.9s8.3,4.7,8.4,4.9c0.1,0.2,0,0.4-0.2,0.7c-0.2,0.1-0.4,0.1-0.7-0.1
					c0,0-2.2-2.1-7.4-2.1c-5.3,0-7.4,2-7.4,2.1c-0.1,0.1-0.2,0.1-0.4,0.1c-0.1,0-0.2,0-0.2-0.1C10.7,10.3,10.6,10.1,10.6,9.8"/>
			</g>
		</g>
	</g>
</g>
</svg>
