<?xml version="1.0" encoding="utf-8"?>
<!-- Generator: Adobe Illustrator 26.0.2, SVG Export Plug-In . SVG Version: 6.00 Build 0)  -->
<svg version="1.1" id="Layer_1" xmlns="http://www.w3.org/2000/svg" xmlns:xlink="http://www.w3.org/1999/xlink" x="0px" y="0px"
	 viewBox="0 0 47.5 47.5" style="enable-background:new 0 0 47.5 47.5;" xml:space="preserve">
<style type="text/css">
	.st0{clip-path:url(#SVGID_00000050624771629147746060000003263359755214716589_);}
	.st1{fill:#EAC56A;}
	.st2{fill:#1A3B45;}
</style>
<g>
	<g>
		<defs>
			<rect id="SVGID_1_" y="-11.9" width="59.4" height="59.4"/>
		</defs>
		<clipPath id="SVGID_00000133528022189606408810000009214868804876075166_">
			<use xlink:href="#SVGID_1_"  style="overflow:visible;"/>
		</clipPath>
		
			<g transform="matrix(1.25 0 0 -1.25 0 47.5)" style="clip-path:url(#SVGID_00000133528022189606408810000009214868804876075166_);">
			<path class="st1" d="M38,19C38,8.5,29.5,0,19,0S0,8.5,0,19s8.5,19,19,19S38,29.5,38,19"/>
			<path class="st2" d="M14.5,20.7c0-2.1-1.2-3.9-2.8-3.9s-2.8,1.8-2.8,3.9s1.2,3.9,2.8,3.9S14.5,22.8,14.5,20.7"/>
			<path class="st2" d="M29.1,20.7c0-2.1-1.2-3.9-2.8-3.9s-2.8,1.8-2.8,3.9s1.2,3.9,2.8,3.9S29.1,22.8,29.1,20.7"/>
			<path class="st2" d="M26.8,10.1H11.2c-0.7,0-1.1,0.4-1.1,1.1s0.4,1.1,1.1,1.1h15.6c0.7,0,1.1-0.4,1.1-1.1S27.5,10.1,26.8,10.1"/>
		</g>
	</g>
</g>
</svg>
