<?xml version="1.0" encoding="utf-8"?>
<!-- Generator: Adobe Illustrator 26.0.2, SVG Export Plug-In . SVG Version: 6.00 Build 0)  -->
<svg version="1.1" id="Laag_1" xmlns="http://www.w3.org/2000/svg" xmlns:xlink="http://www.w3.org/1999/xlink" x="0px" y="0px"
	 viewBox="0 0 345.1 345.1" style="enable-background:new 0 0 345.1 345.1;" xml:space="preserve">
<style type="text/css">
	.st0{fill:#F2D243;}
	.st1{fill:#794A12;}
	.st2{fill:#975C1A;}
	.st3{fill:#FAF7F7;}
	.st4{fill:none;stroke:#794A12;stroke-width:5.3868;stroke-linecap:round;stroke-miterlimit:10;}
</style>
<g>
	<circle class="st0" cx="172.5" cy="172.5" r="172.5"/>
	<g>
		<ellipse class="st1" cx="119.6" cy="145.7" rx="22.3" ry="26.9"/>
		<ellipse class="st1" cx="225.5" cy="145.7" rx="22.3" ry="26.9"/>
	</g>
	<g>
		<path class="st2" d="M71.5,239.8c17.3,41.3,57.9,68.2,102.3,68c45.8-0.2,87.1-29.1,103.1-72.4C208.5,236.9,140,238.4,71.5,239.8z"
			/>
		<path class="st3" d="M60.5,200.3c28.3,8.4,68.3,17,116.6,17.3c44.1,0.2,81.1-6.6,108.2-13.7c-3.7,12.5-7.4,25.1-11.1,37.6
			c-22.2,7.7-56,16.4-97.8,16.6c-45.6,0.2-82-10-105-18.3C67.9,226.7,64.2,213.5,60.5,200.3z"/>
		<path class="st4" d="M59.7,199.4c28.2,8.7,68.5,17.8,117.4,18.2c44.2,0.3,81.3-6.5,108.2-13.7c-7.2,54.6-48.5,96.8-97.1,103.1
			C129,314.8,67.8,268.2,59.7,199.4z"/>
	</g>
</g>
</svg>
