<svg xmlns="http://www.w3.org/2000/svg" viewBox="0 0 392.81 244.9"><defs><style>.cls-1{fill:#70a667;}.cls-2{fill:#646464;}.cls-3{fill:#828383;}.cls-4{fill:#2f505b;}.cls-5{opacity:0.54;}.cls-6{fill:#456c77;}.cls-7{fill:#546a74;}.cls-8{fill:#446c77;}.cls-9{fill:#1e1e1c;}</style></defs><g id="Laag_2" data-name="Laag 2"><g id="Laag_3" data-name="Laag 3"><path class="cls-1" d="M0,145.24,196.32,45.6l196.49,99.65L196.32,244.9Z"/><line class="cls-2" x1="295.38" y1="127.04" x2="295.38" y2="127.04"/><path class="cls-2" d="M267.09,166.63c-37.71,21.78-99.42,21.78-137.14,0-18.86-10.88-28.28-25.24-28.28-39.59v24.25c0,14.35,9.42,28.71,28.28,39.6,37.72,21.77,99.43,21.77,137.14,0,18.86-10.89,28.29-25.25,28.29-39.6V127C295.38,141.4,286,155.75,267.09,166.63Z"/><ellipse class="cls-3" cx="198.52" cy="128.03" rx="96.98" ry="55.99"/><ellipse class="cls-2" cx="198.52" cy="128.03" rx="91.34" ry="52.74"/><ellipse class="cls-4" cx="198.3" cy="131.71" rx="89.48" ry="49.06"/><path class="cls-2" d="M215.45,102.09c-8.89,5.14-23.43,5.14-32.32,0-4.44-2.56-6.67-5.94-6.67-9.33V122.5c0,3.38,2.23,6.77,6.67,9.33,8.89,5.13,23.43,5.13,32.32,0,4.44-2.56,6.66-6,6.66-9.33V92.76C222.11,96.15,219.89,99.53,215.45,102.09Z"/><path class="cls-2" d="M176.46,92.76c0,3.39,2.23,6.77,6.67,9.33,8.89,5.14,23.43,5.14,32.32,0,4.44-2.56,6.66-5.94,6.66-9.33"/><ellipse class="cls-3" cx="199.29" cy="92.76" rx="22.85" ry="13.19"/><line class="cls-2" x1="241.43" y1="87.27" x2="241.43" y2="87.27"/><path class="cls-2" d="M229.12,104.5c-16.41,9.48-43.26,9.48-59.67,0-8.2-4.74-12.31-11-12.31-17.23V97.82c0,6.25,4.11,12.49,12.31,17.23,16.41,9.48,43.26,9.48,59.67,0,8.21-4.74,12.31-11,12.31-17.23V87.27C241.43,93.52,237.33,99.76,229.12,104.5Z"/><ellipse class="cls-3" cx="199.29" cy="87.7" rx="42.19" ry="24.36"/><ellipse class="cls-2" cx="198.66" cy="87.08" rx="37.46" ry="21.63"/><ellipse class="cls-4" cx="198.66" cy="89.88" rx="35.82" ry="18.83"/><g class="cls-5"><ellipse class="cls-6" cx="199.31" cy="90.6" rx="40.4" ry="27.28"/><path class="cls-6" d="M246.24,108.06l-6.61-16.58c-.32,6.7-4.23,13.33-11.76,18.41-15.71,10.61-41.42,10.61-57.13,0-7.52-5.08-11.43-11.71-11.75-18.41l-6.61,16.58c-13.45,14.46-10.89,33.9,7.7,46.46,21.58,14.57,56.88,14.57,78.46,0C257.13,142,259.69,122.52,246.24,108.06Z"/><path class="cls-6" d="M159.34,90.6l-.35.88c.32,6.7,4.23,13.33,11.75,18.41,15.71,10.61,41.42,10.61,57.13,0,7.53-5.08,11.44-11.71,11.76-18.41l-.35-.88"/></g><path class="cls-2" d="M208.51,71.9c-5.52,3.18-14.56,3.18-20.08,0-2.76-1.6-4.14-3.7-4.14-5.8V84.58c0,2.1,1.38,4.2,4.14,5.79,5.52,3.19,14.56,3.19,20.08,0,2.76-1.59,4.14-3.69,4.14-5.79V66.1C212.65,68.2,211.27,70.3,208.51,71.9Z"/><path class="cls-2" d="M184.29,66.1c0,2.1,1.38,4.2,4.14,5.8,5.52,3.18,14.56,3.18,20.08,0,2.76-1.6,4.14-3.7,4.14-5.8"/><ellipse class="cls-3" cx="198.47" cy="66.1" rx="14.2" ry="8.2"/><ellipse class="cls-3" cx="199.29" cy="52.17" rx="34.2" ry="19.75"/><path class="cls-2" d="M223.47,66.13c-13.3,7.68-35.07,7.68-48.37,0-6.65-3.84-10-8.9-10-14v6.29c0,5.06,3.33,10.13,10,14,13.3,7.68,35.07,7.68,48.37,0,6.66-3.84,10-8.91,10-14V52.17C233.45,57.23,230.13,62.29,223.47,66.13Z"/><ellipse class="cls-2" cx="199.29" cy="52.17" rx="30.06" ry="17.36"/><ellipse class="cls-4" cx="199.29" cy="53.84" rx="29.58" ry="15.68"/><g class="cls-5"><ellipse class="cls-6" cx="199.29" cy="53.69" rx="32.24" ry="22.13"/><path class="cls-6" d="M236.74,67.85,231.47,54.4c-.26,5.43-3.38,10.81-9.38,14.94-12.54,8.6-33.06,8.6-45.6,0-6-4.13-9.13-9.51-9.38-14.94l-5.28,13.45c-10.73,11.73-8.69,27.5,6.15,37.68,17.22,11.83,45.4,11.83,62.62,0C245.44,95.35,247.48,79.58,236.74,67.85Z"/><path class="cls-6" d="M167.39,53.69l-.28.71c.25,5.43,3.37,10.81,9.38,14.94,12.54,8.6,33.06,8.6,45.6,0,6-4.13,9.12-9.51,9.38-14.94l-.28-.71"/></g><ellipse class="cls-7" cx="199.31" cy="28.62" rx="1.83" ry="1.06"/><path class="cls-7" d="M210.32,42.14l-9.15-13.52h0a.9.9,0,0,1-.53.74,2.84,2.84,0,0,1-2.6,0,.93.93,0,0,1-.51-.64l-9.28,13.47c-2.74,1.67-4.11,3.83-4.13,6l0,0h0c0,2.25,1.48,4.51,4.44,6.22,5.93,3.42,15.63,3.42,21.56,0S216,45.58,210.32,42.14Z"/><path class="cls-7" d="M197.56,28.62l-.07.1a.93.93,0,0,0,.51.64,2.84,2.84,0,0,0,2.6,0,.9.9,0,0,0,.53-.74"/><g class="cls-5"><ellipse class="cls-8" cx="199.29" cy="36.71" rx="16.64" ry="9.61"/><path class="cls-8" d="M218.62,42.86,215.9,37c-.13,2.36-1.74,4.7-4.84,6.49-6.48,3.74-17.07,3.74-23.54,0-3.1-1.79-4.71-4.13-4.84-6.49L180,42.86c-5.54,5.1-4.48,11.94,3.18,16.37,8.88,5.13,23.43,5.13,32.32,0C223.11,54.8,224.16,48,218.62,42.86Z"/><path class="cls-8" d="M182.82,36.71l-.14.31c.13,2.36,1.74,4.7,4.84,6.49,6.47,3.74,17.06,3.74,23.54,0,3.1-1.79,4.71-4.13,4.84-6.49l-.15-.31"/></g><path class="cls-9" d="M200.91,21c-.59-4.1-1.16-7.33-1.57-9.52-.35-1.84-1.18-6.34.3-8.26.21-.27.8-1,1.36-.92s.67.71.7.8c.57,1.73-1.8,4-2.21,4.41-.22.21-.11.08-1.18,1-1.57,1.34-2.36,2-2.8,2.48a7.54,7.54,0,0,0-1.95,3.86,6.38,6.38,0,0,0,1.59,5.43c2.06,2,5.59,2.07,7.29.52a4.73,4.73,0,0,0,1.09-1.67,4.49,4.49,0,0,0,.07-3.28,3.59,3.59,0,0,0-.91-1.35,3.71,3.71,0,0,0-6.1,2.49,3,3,0,0,0,.82,2.15,2.72,2.72,0,0,0,1.34.71,2.28,2.28,0,0,1-1.19-2,2.23,2.23,0,0,1,.82-1.62,2.41,2.41,0,0,1,1.37-.43,2.74,2.74,0,0,1,2.12.53,2.41,2.41,0,0,1,.63,1,3.24,3.24,0,0,1-.19,2.7c-.83,1.41-2.78,1.6-4,1.4a4.79,4.79,0,0,1-3.84-4c-.24-2.28,1.71-4.11,2.35-4.71.21-.2,1-.9,2-1.69.82-.67.84-.64,1.17-.94a7.8,7.8,0,0,0,1.79-2.41,7.83,7.83,0,0,0,.68-2.72A8.17,8.17,0,0,0,201.38.58a1,1,0,0,0-.66-.57,1.12,1.12,0,0,0-.89.48,7.16,7.16,0,0,0-1.59,3.3,11.78,11.78,0,0,0,.06,4c.59,2.78,1.26,7.27,2.1,13.38,0,0,.94,4.18.63,5.14a3.2,3.2,0,0,1-1.51,1.54,2.91,2.91,0,0,1-1.06.16,2.87,2.87,0,0,1-1.54-.53,2,2,0,0,0,1.69-2.21c-.21-.77-1.15-1.06-1.23-1.09a1.89,1.89,0,0,0-1.51.41,1.73,1.73,0,0,0-.47,1,2.51,2.51,0,0,0,.52,1.87,2.9,2.9,0,0,0,1.75.93,3.26,3.26,0,0,0,1.57,0,3.38,3.38,0,0,0,1.94-1.52c0-.1.11-.2.17-.35a4.86,4.86,0,0,0,.05-2Z"/></g></g></svg>